<svg width="200" height="200" viewBox="0 0 200 200" fill="none" xmlns="http://www.w3.org/2000/svg">
  <path d="M100 40C111.046 40 120 48.9543 120 60C120 71.0457 111.046 80 100 80C88.9543 80 80 71.0457 80 60C80 48.9543 88.9543 40 100 40Z" fill="#3B82F6"/>
  <path d="M140 140V130C140 114.536 127.464 102 112 102H88C72.536 102 60 114.536 60 130V140H140Z" fill="#3B82F6"/>
  <path d="M65 40H70V70H65V40Z" fill="#3B82F6"/>
  <path d="M50 55H85V60H50V55Z" fill="#3B82F6"/>
  <path d="M130 40H135V70H130V40Z" fill="#3B82F6"/>
  <path d="M115 55H150V60H115V55Z" fill="#3B82F6"/>
  <path d="M90 150C90 147.239 92.2386 145 95 145H105C107.761 145 110 147.239 110 150V160H90V150Z" fill="#3B82F6"/>
</svg>
